<mxfile host="app.diagrams.net" modified="2023-08-18T21:21:04.073Z" agent="Mozilla/5.0 (X11; Linux x86_64; rv:109.0) Gecko/20100101 Firefox/115.0" etag="gag-pye8oBN6_cC-dFhq" version="21.6.6" type="device">
  <diagram name="Page-1" id="8z2Qnbz74Pd2UMmgpyIp">
    <mxGraphModel dx="1026" dy="538" grid="1" gridSize="10" guides="1" tooltips="1" connect="1" arrows="1" fold="1" page="1" pageScale="1" pageWidth="827" pageHeight="1169" math="0" shadow="0">
      <root>
        <mxCell id="0" />
        <mxCell id="1" parent="0" />
        <mxCell id="cEYBqB_Xc6SYK56JsrTo-19" style="edgeStyle=orthogonalEdgeStyle;rounded=0;orthogonalLoop=1;jettySize=auto;html=1;exitX=1;exitY=0.5;exitDx=0;exitDy=0;entryX=0;entryY=0.5;entryDx=0;entryDy=0;" edge="1" parent="1" source="cEYBqB_Xc6SYK56JsrTo-1" target="cEYBqB_Xc6SYK56JsrTo-7">
          <mxGeometry relative="1" as="geometry" />
        </mxCell>
        <mxCell id="cEYBqB_Xc6SYK56JsrTo-21" style="edgeStyle=orthogonalEdgeStyle;rounded=0;orthogonalLoop=1;jettySize=auto;html=1;exitX=0.5;exitY=0;exitDx=0;exitDy=0;entryX=0;entryY=0.5;entryDx=0;entryDy=0;" edge="1" parent="1" source="cEYBqB_Xc6SYK56JsrTo-1" target="cEYBqB_Xc6SYK56JsrTo-9">
          <mxGeometry relative="1" as="geometry" />
        </mxCell>
        <mxCell id="cEYBqB_Xc6SYK56JsrTo-1" value="&lt;div&gt;engine&lt;/div&gt;&lt;div&gt;Purpose: Handle chess games efficiently.&lt;br&gt;&lt;/div&gt;" style="rounded=0;whiteSpace=wrap;html=1;" vertex="1" parent="1">
          <mxGeometry x="40" y="240" width="160" height="120" as="geometry" />
        </mxCell>
        <mxCell id="cEYBqB_Xc6SYK56JsrTo-18" style="edgeStyle=orthogonalEdgeStyle;rounded=0;orthogonalLoop=1;jettySize=auto;html=1;exitX=0.5;exitY=1;exitDx=0;exitDy=0;" edge="1" parent="1" source="cEYBqB_Xc6SYK56JsrTo-7">
          <mxGeometry relative="1" as="geometry">
            <mxPoint x="480" y="440" as="targetPoint" />
            <Array as="points">
              <mxPoint x="320" y="440" />
            </Array>
          </mxGeometry>
        </mxCell>
        <mxCell id="cEYBqB_Xc6SYK56JsrTo-20" style="edgeStyle=orthogonalEdgeStyle;rounded=0;orthogonalLoop=1;jettySize=auto;html=1;exitX=1;exitY=0.5;exitDx=0;exitDy=0;entryX=0;entryY=0.5;entryDx=0;entryDy=0;" edge="1" parent="1" source="cEYBqB_Xc6SYK56JsrTo-7" target="cEYBqB_Xc6SYK56JsrTo-10">
          <mxGeometry relative="1" as="geometry" />
        </mxCell>
        <mxCell id="cEYBqB_Xc6SYK56JsrTo-7" value="&lt;div&gt;api&lt;/div&gt;&lt;div&gt;Purpose: Control traffic from applications and provides an interface to implement chess games.&lt;br&gt;&lt;/div&gt;" style="rounded=0;whiteSpace=wrap;html=1;" vertex="1" parent="1">
          <mxGeometry x="240" y="240" width="160" height="120" as="geometry" />
        </mxCell>
        <mxCell id="cEYBqB_Xc6SYK56JsrTo-16" style="edgeStyle=orthogonalEdgeStyle;rounded=0;orthogonalLoop=1;jettySize=auto;html=1;exitX=1;exitY=0.5;exitDx=0;exitDy=0;" edge="1" parent="1" source="cEYBqB_Xc6SYK56JsrTo-9" target="cEYBqB_Xc6SYK56JsrTo-15">
          <mxGeometry relative="1" as="geometry" />
        </mxCell>
        <mxCell id="cEYBqB_Xc6SYK56JsrTo-9" value="&lt;div&gt;desktop&lt;br&gt;&lt;/div&gt;&lt;div&gt;Purpose: Provide a desktop interface to play chess games. Standalone.&lt;br&gt;&lt;/div&gt;" style="rounded=0;whiteSpace=wrap;html=1;" vertex="1" parent="1">
          <mxGeometry x="440" y="80" width="160" height="120" as="geometry" />
        </mxCell>
        <mxCell id="cEYBqB_Xc6SYK56JsrTo-17" style="edgeStyle=orthogonalEdgeStyle;rounded=0;orthogonalLoop=1;jettySize=auto;html=1;exitX=1;exitY=0.5;exitDx=0;exitDy=0;" edge="1" parent="1" source="cEYBqB_Xc6SYK56JsrTo-10" target="cEYBqB_Xc6SYK56JsrTo-14">
          <mxGeometry relative="1" as="geometry" />
        </mxCell>
        <mxCell id="cEYBqB_Xc6SYK56JsrTo-10" value="&lt;div&gt;web&lt;/div&gt;&lt;div&gt;Purpose: Provide a web-interface to play chess games.&lt;br&gt;&lt;/div&gt;" style="rounded=0;whiteSpace=wrap;html=1;" vertex="1" parent="1">
          <mxGeometry x="440" y="240" width="160" height="120" as="geometry" />
        </mxCell>
        <mxCell id="cEYBqB_Xc6SYK56JsrTo-12" value="Third Party" style="shape=umlActor;verticalLabelPosition=bottom;verticalAlign=top;html=1;outlineConnect=0;" vertex="1" parent="1">
          <mxGeometry x="480" y="410" width="30" height="60" as="geometry" />
        </mxCell>
        <mxCell id="cEYBqB_Xc6SYK56JsrTo-14" value="UserI" style="shape=umlActor;verticalLabelPosition=bottom;verticalAlign=top;html=1;outlineConnect=0;" vertex="1" parent="1">
          <mxGeometry x="640" y="270" width="30" height="60" as="geometry" />
        </mxCell>
        <mxCell id="cEYBqB_Xc6SYK56JsrTo-15" value="User" style="shape=umlActor;verticalLabelPosition=bottom;verticalAlign=top;html=1;outlineConnect=0;" vertex="1" parent="1">
          <mxGeometry x="640" y="110" width="30" height="60" as="geometry" />
        </mxCell>
      </root>
    </mxGraphModel>
  </diagram>
</mxfile>
